HIERARCHY
ROOT Hips
{
    OFFSET 0.000000 0.000000 0.000000
    CHANNELS 6 Xposition Yposition Zposition Zrotation Xrotation Yrotation
    JOINT Spine
    {
        OFFSET 0.000001 7.974411 0.000018
        CHANNELS 3 Zrotation Xrotation Yrotation
        JOINT Spine1
        {
            OFFSET -0.000000 23.666340 0.000011
            CHANNELS 3 Zrotation Xrotation Yrotation
            JOINT Neck
            {
                OFFSET 0.000001 26.488382 -0.000016
                CHANNELS 3 Zrotation Xrotation Yrotation
                JOINT Head
                {
                    OFFSET -0.000000 16.189651 2.035183
                    CHANNELS 3 Zrotation Xrotation Yrotation
                    End Site
                    {
                        OFFSET 0.000000 20.351660 0.000000
                    }
                }
            }
            JOINT LeftShoulder
            {
                OFFSET 4.036570 20.304853 -0.371922
                CHANNELS 3 Zrotation Xrotation Yrotation
                JOINT LeftArm
                {
                    OFFSET 12.502551 0.000002 -0.000005
                    CHANNELS 3 Zrotation Xrotation Yrotation
                    JOINT LeftForeArm
                    {
                        OFFSET 31.806904 0.000000 0.000008
                        CHANNELS 3 Zrotation Xrotation Yrotation
                        JOINT LeftHand
                        {
                            OFFSET 24.843227 0.000001 -0.000003
                            CHANNELS 3 Zrotation Xrotation Yrotation
                            JOINT LeftHandThumb1
                            {
                                OFFSET 2.126757 -2.416752 3.383459
                                CHANNELS 3 Zrotation Xrotation Yrotation
                                JOINT LeftHandThumb2
                                {
                                    OFFSET 3.212125 0.000001 0.000002
                                    CHANNELS 3 Zrotation Xrotation Yrotation
                                    JOINT LeftHandThumb3
                                    {
                                        OFFSET 2.745442 0.000003 0.000001
                                        CHANNELS 3 Zrotation Xrotation Yrotation
                                        End Site
                                        {
                                            OFFSET 2.793713 0.000000 0.000000
                                        }
                                    }
                                }
                            }
                            JOINT LeftHandIndex1
                            {
                                OFFSET 8.700338 0.000001 3.383464
                                CHANNELS 3 Zrotation Xrotation Yrotation
                                JOINT LeftHandIndex2
                                {
                                    OFFSET 4.833520 0.000002 -0.000004
                                    CHANNELS 3 Zrotation Xrotation Yrotation
                                    JOINT LeftHandIndex3
                                    {
                                        OFFSET 2.416750 -0.000005 0.000000
                                        CHANNELS 3 Zrotation Xrotation Yrotation
                                        End Site
                                        {
                                            OFFSET 2.459254 0.000000 0.000000
                                        }
                                    }
                                }
                            }
                            JOINT LeftHandMiddle1
                            {
                                OFFSET 8.700338 0.000004 1.121372
                                CHANNELS 3 Zrotation Xrotation Yrotation
                                JOINT LeftHandMiddle2
                                {
                                    OFFSET 5.316875 0.000004 -0.000004
                                    CHANNELS 3 Zrotation Xrotation Yrotation
                                    JOINT LeftHandMiddle3
                                    {
                                        OFFSET 2.900104 -0.000004 -0.000001
                                        CHANNELS 3 Zrotation Xrotation Yrotation
                                        End Site
                                        {
                                            OFFSET 2.951103 0.000000 0.000000
                                        }
                                    }
                                }
                            }
                            JOINT LeftHandRing1
                            {
                                OFFSET 8.216979 -0.000006 -1.121373
                                CHANNELS 3 Zrotation Xrotation Yrotation
                                JOINT LeftHandRing2
                                {
                                    OFFSET 4.833519 0.000003 -0.000003
                                    CHANNELS 3 Zrotation Xrotation Yrotation
                                    JOINT LeftHandRing3
                                    {
                                        OFFSET 2.416750 -0.000006 -0.000001
                                        CHANNELS 3 Zrotation Xrotation Yrotation
                                        End Site
                                        {
                                            OFFSET 2.459254 0.000000 0.000000
                                        }
                                    }
                                }
                            }
                            JOINT LeftHandPinky1
                            {
                                OFFSET 7.733624 -0.000004 -3.383464
                                CHANNELS 3 Zrotation Xrotation Yrotation
                                JOINT LeftHandPinky2
                                {
                                    OFFSET 3.866813 -0.000001 -0.000002
                                    CHANNELS 3 Zrotation Xrotation Yrotation
                                    JOINT LeftHandPinky3
                                    {
                                        OFFSET 1.933416 0.000007 -0.000001
                                        CHANNELS 3 Zrotation Xrotation Yrotation
                                        End Site
                                        {
                                            OFFSET 1.967405 0.000000 0.000000
                                        }
                                    }
                                }
                            }
                        }
                    }
                }
            }
            JOINT RightShoulder
            {
                OFFSET -4.036570 20.304846 -0.371914
                CHANNELS 3 Zrotation Xrotation Yrotation
                JOINT RightArm
                {
                    OFFSET -12.502551 -0.000003 0.000000
                    CHANNELS 3 Zrotation Xrotation Yrotation
                    JOINT RightForeArm
                    {
                        OFFSET -31.806898 0.000000 -0.000002
                        CHANNELS 3 Zrotation Xrotation Yrotation
                        JOINT RightHand
                        {
                            OFFSET -24.843227 0.000007 0.000003
                            CHANNELS 3 Zrotation Xrotation Yrotation
                            JOINT RightHandThumb1
                            {
                                OFFSET -2.126744 -2.416756 3.383466
                                CHANNELS 3 Zrotation Xrotation Yrotation
                                JOINT RightHandThumb2
                                {
                                    OFFSET -3.212128 -0.000004 0.000003
                                    CHANNELS 3 Zrotation Xrotation Yrotation
                                    JOINT RightHandThumb3
                                    {
                                        OFFSET -2.745442 0.000009 -0.000005
                                        CHANNELS 3 Zrotation Xrotation Yrotation
                                        End Site
                                        {
                                            OFFSET -2.793713 0.000000 0.000000
                                        }
                                    }
                                }
                            }
                            JOINT RightHandIndex1
                            {
                                OFFSET -8.700331 -0.000003 3.383460
                                CHANNELS 3 Zrotation Xrotation Yrotation
                                JOINT RightHandIndex2
                                {
                                    OFFSET -4.833517 -0.000006 -0.000003
                                    CHANNELS 3 Zrotation Xrotation Yrotation
                                    JOINT RightHandIndex3
                                    {
                                        OFFSET -2.416764 0.000007 0.000000
                                        CHANNELS 3 Zrotation Xrotation Yrotation
                                        End Site
                                        {
                                            OFFSET -2.459254 0.000000 0.000000
                                        }
                                    }
                                }
                            }
                            JOINT RightHandMiddle1
                            {
                                OFFSET -8.700334 0.000007 1.121377
                                CHANNELS 3 Zrotation Xrotation Yrotation
                                JOINT RightHandMiddle2
                                {
                                    OFFSET -5.316870 0.000000 -0.000001
                                    CHANNELS 3 Zrotation Xrotation Yrotation
                                    JOINT RightHandMiddle3
                                    {
                                        OFFSET -2.900106 -0.000007 -0.000003
                                        CHANNELS 3 Zrotation Xrotation Yrotation
                                        End Site
                                        {
                                            OFFSET -2.951103 0.000000 0.000000
                                        }
                                    }
                                }
                            }
                            JOINT RightHandRing1
                            {
                                OFFSET -8.216982 0.000008 -1.121375
                                CHANNELS 3 Zrotation Xrotation Yrotation
                                JOINT RightHandRing2
                                {
                                    OFFSET -4.833517 -0.000006 -0.000004
                                    CHANNELS 3 Zrotation Xrotation Yrotation
                                    JOINT RightHandRing3
                                    {
                                        OFFSET -2.416764 0.000007 0.000001
                                        CHANNELS 3 Zrotation Xrotation Yrotation
                                        End Site
                                        {
                                            OFFSET -2.459254 0.000000 0.000000
                                        }
                                    }
                                }
                            }
                            JOINT RightHandPinky1
                            {
                                OFFSET -7.733631 0.000011 -3.383461
                                CHANNELS 3 Zrotation Xrotation Yrotation
                                JOINT RightHandPinky2
                                {
                                    OFFSET -3.866817 0.000004 0.000001
                                    CHANNELS 3 Zrotation Xrotation Yrotation
                                    JOINT RightHandPinky3
                                    {
                                        OFFSET -1.933406 0.000003 0.000002
                                        CHANNELS 3 Zrotation Xrotation Yrotation
                                        End Site
                                        {
                                            OFFSET -1.967405 0.000000 0.000000
                                        }
                                    }
                                }
                            }
                        }
                    }
                }
            }
        }
    }
    JOINT LeftUpLeg
    {
        OFFSET 10.175827 0.000003 0.000004
        CHANNELS 3 Zrotation Xrotation Yrotation
        JOINT LeftLeg
        {
            OFFSET 0.000001 -42.882942 -0.000010
            CHANNELS 3 Zrotation Xrotation Yrotation
            JOINT LeftFoot
            {
                OFFSET 0.000001 -39.006767 0.000004
                CHANNELS 3 Zrotation Xrotation Yrotation
                JOINT LeftToeBase
                {
                    OFFSET 0.000000 -6.614288 15.263754
                    CHANNELS 3 Zrotation Xrotation Yrotation
                    End Site
                    {
                        OFFSET 0.000000 0.000000 4.070332
                    }
                }
            }
        }
    }
    JOINT RightUpLeg
    {
        OFFSET -10.175827 -0.000003 -0.000004
        CHANNELS 3 Zrotation Xrotation Yrotation
        JOINT RightLeg
        {
            OFFSET 0.000000 -42.882950 0.000010
            CHANNELS 3 Zrotation Xrotation Yrotation
            JOINT RightFoot
            {
                OFFSET -0.000002 -39.006771 -0.000009
                CHANNELS 3 Zrotation Xrotation Yrotation
                JOINT RightToeBase
                {
                    OFFSET 0.000002 -6.614288 15.263745
                    CHANNELS 3 Zrotation Xrotation Yrotation
                    End Site
                    {
                        OFFSET 0.000000 0.000000 4.070332
                    }
                }
            }
        }
    }
}
MOTION
Frames:    4
Frame Time:    0.002778
-11.019061    89.968575    227.462265    7.794877    -1.104469    -0.356073    0.105872    4.965367    4.737851    0.529353    4.965163    4.701198    2.913090    -3.495207    -4.345821    2.913089    -3.495207    -4.345822    -6.636276    -0.866043    -1.515446    -54.795750    19.227396    -24.193228    -13.372463    1.466874    -134.524887    18.424364    6.679235    19.563734    47.448219    38.866417    -34.355034    -34.999996    0.000002    0.000003    -0.000000    0.000000    -0.000000    -0.000003    9.999996    -0.000003    -0.000000    0.000000    -0.000000    -0.000000    0.000000    -0.000000    -0.000000    0.000000    -0.000000    -0.000000    0.000000    -0.000000    -0.000000    0.000000    -0.000000    -0.000000    0.000000    -0.000000    -0.000000    0.000000    -0.000000    -0.000000    0.000000    -0.000000    -0.000007    -9.999997    0.000003    -0.000000    0.000000    -0.000000    -0.000000    0.000000    -0.000000    -4.831813    -1.437531    3.704096    28.480181    -18.794348    49.932621    -17.387653    -10.921695    67.012489    -6.701521    4.370596    -32.081257    -47.448215    38.866444    34.355034    34.999992    -0.000005    0.000020    -0.000000    0.000000    -0.000000    -0.000000    9.999990    0.000021    -0.000000    0.000000    -0.000000    -0.000000    0.000000    -0.000000    -0.000000    0.000000    -0.000000    -0.000000    0.000000    -0.000000    -0.000000    0.000000    -0.000000    -0.000000    0.000000    -0.000000    -0.000000    0.000000    -0.000000    -0.000000    0.000000    -0.000000    -0.000001    -10.000004    0.000011    -0.000000    0.000000    -0.000000    -0.000000    0.000000    -0.000000    9.157336    -12.790033    -4.944204    -0.000000    35.685192    -0.000000    -18.599438    -18.961363    9.476695    -0.000000    -2.700052    -0.000001    -12.885164    -19.401424    -8.736950    -0.000000    54.026569    0.000000    10.429832    -32.587700    -17.154921    -0.000001    -0.441689    0.000004    
-10.987046    89.919243    227.455002    7.747344    -1.137732    -0.318255    0.102796    4.985707    4.713793    0.513974    4.985513    4.678058    2.934281    -3.471266    -4.316225    2.934282    -3.471265    -4.316224    -6.641146    -0.867841    -1.509400    -54.825733    19.216152    -24.129856    -13.334161    1.442919    -134.506973    18.424574    6.669333    19.536001    47.448219    38.866432    -34.355042    -35.000000    -0.000001    0.000010    -0.000000    0.000000    -0.000000    0.000003    9.999997    0.000007    -0.000000    0.000000    -0.000000    -0.000000    0.000000    -0.000000    -0.000000    0.000000    -0.000000    -0.000000    0.000000    -0.000000    -0.000000    0.000000    -0.000000    -0.000000    0.000000    -0.000000    -0.000000    0.000000    -0.000000    -0.000000    0.000000    -0.000000    -0.000000    -10.000000    -0.000002    -0.000000    0.000000    -0.000000    -0.000000    0.000000    -0.000000    -4.826671    -1.412382    3.698920    28.488281    -18.677076    49.832054    -17.471699    -10.964652    67.172188    -6.645764    4.346201    -32.140717    -47.448215    38.866432    34.355038    35.000000    -0.000006    0.000010    -0.000000    0.000000    -0.000000    0.000003    10.000003    0.000002    -0.000000    0.000000    -0.000000    -0.000000    0.000000    -0.000000    -0.000000    0.000000    -0.000000    -0.000000    0.000000    -0.000000    -0.000000    0.000000    -0.000000    -0.000000    0.000000    -0.000000    -0.000000    0.000000    -0.000000    -0.000000    0.000000    -0.000000    -0.000002    -9.999994    -0.000001    -0.000000    0.000000    -0.000000    -0.000000    0.000000    -0.000000    9.164550    -12.815782    -4.982055    0.000002    35.819698    -0.000002    -18.545206    -19.148506    9.481790    0.000000    -2.681429    0.000003    -12.878242    -19.408703    -8.767056    0.000000    54.137802    -0.000000    10.460455    -32.653843    -17.127029    -0.000000    -0.442282    0.000003    
-10.957124    89.868965    227.448135    7.699145    -1.170270    -0.281509    0.099731    5.005906    4.692988    0.498644    5.005726    4.658180    2.958852    -3.451847    -4.279450    2.958858    -3.451847    -4.279450    -6.643307    -0.867838    -1.499828    -54.847935    19.225615    -24.074974    -13.309102    1.416280    -134.488373    18.452251    6.675606    19.522552    47.448208    38.866432    -34.355045    -35.000008    -0.000003    -0.000001    -0.000000    0.000000    -0.000000    0.000000    9.999996    -0.000003    -0.000000    0.000000    -0.000000    -0.000000    0.000000    -0.000000    -0.000000    0.000000    -0.000000    -0.000000    0.000000    -0.000000    -0.000000    0.000000    -0.000000    -0.000000    0.000000    -0.000000    -0.000000    0.000000    -0.000000    -0.000000    0.000000    -0.000000    0.000003    -9.999998    -0.000003    -0.000000    0.000000    -0.000000    -0.000000    0.000000    -0.000000    -4.821530    -1.390132    3.686546    28.493597    -18.551672    49.720901    -17.535908    -11.014196    67.335579    -6.597221    4.317525    -32.148140    -47.448212    38.866432    34.355034    34.999996    -0.000002    0.000005    -0.000000    0.000000    -0.000000    0.000001    9.999998    0.000003    -0.000000    0.000000    -0.000000    -0.000000    0.000000    -0.000000    -0.000000    0.000000    -0.000000    -0.000000    0.000000    -0.000000    -0.000000    0.000000    -0.000000    -0.000000    0.000000    -0.000000    -0.000000    0.000000    -0.000000    -0.000000    0.000000    -0.000000    -0.000004    -9.999996    -0.000003    -0.000000    0.000000    -0.000000    -0.000000    0.000000    -0.000000    9.172960    -12.846065    -5.016248    0.000002    35.959644    -0.000001    -18.469069    -19.321907    9.496816    -0.000000    -2.682650    -0.000002    -12.871977    -19.416979    -8.801754    0.000000    54.249638    -0.000001    10.488792    -32.720192    -17.104504    -0.000002    -0.440850    0.000008    
-10.921150    89.815598    227.440018    7.651100    -1.205364    -0.243260    0.097479    5.026483    4.671142    0.487398    5.026310    4.636981    2.981562    -3.420892    -4.247258    2.981561    -3.420891    -4.247257    -6.647788    -0.866670    -1.501883    -54.874760    19.259975    -24.023211    -13.324637    1.407489    -134.482224    18.496565    6.697027    19.532978    47.448238    38.866447    -34.355042    -34.999992    -0.000002    -0.000001    -0.000000    0.000000    -0.000000    -0.000003    10.000002    -0.000003    -0.000000    0.000000    -0.000000    -0.000000    0.000000    -0.000000    -0.000000    0.000000    -0.000000    -0.000000    0.000000    -0.000000    -0.000000    0.000000    -0.000000    -0.000000    0.000000    -0.000000    -0.000000    0.000000    -0.000000    -0.000000    0.000000    -0.000000    0.000000    -9.999997    0.000000    -0.000000    0.000000    -0.000000    -0.000000    0.000000    -0.000000    -4.799012    -1.373286    3.680758    28.520096    -18.422510    49.622662    -17.581917    -11.071515    67.520248    -6.554400    4.287893    -32.128250    -47.448212    38.866432    34.355038    35.000000    -0.000002    -0.000005    -0.000000    0.000000    -0.000000    0.000001    9.999999    0.000006    -0.000000    0.000000    -0.000000    -0.000000    0.000000    -0.000000    -0.000000    0.000000    -0.000000    -0.000000    0.000000    -0.000000    -0.000000    0.000000    -0.000000    -0.000000    0.000000    -0.000000    -0.000000    0.000000    -0.000000    -0.000000    0.000000    -0.000000    -0.000001    -10.000007    0.000004    -0.000000    0.000000    -0.000000    -0.000000    0.000000    -0.000000    9.178505    -12.880233    -5.046752    -0.000001    36.114067    0.000001    -18.395214    -19.506098    9.497960    -0.000000    -2.694304    0.000001    -12.859644    -19.432993    -8.815091    -0.000001    54.375225    0.000002    10.508420    -32.788914    -17.105639    -0.000001    -0.438983    0.000002    
